<?xml version="1.0" encoding="utf-8"?>
<!-- Generator: Adobe Illustrator 17.0.0, SVG Export Plug-In . SVG Version: 6.00 Build 0)  -->
<!DOCTYPE svg PUBLIC "-//W3C//DTD SVG 1.1//EN" "http://www.w3.org/Graphics/SVG/1.1/DTD/svg11.dtd">
<svg version="1.1" id="Layer_1" xmlns="http://www.w3.org/2000/svg" xmlns:xlink="http://www.w3.org/1999/xlink" x="0px" y="0px"
	 width="170.079px" height="170.079px" viewBox="0 0 170.079 170.079" enable-background="new 0 0 170.079 170.079"
	 xml:space="preserve">
<path fill="#7CD17C" d="M170.079,45.334v115.01c0,5.399-4.477,9.774-10,9.774H38.096c-5.521,0-10-4.375-10-9.774V9.845
	c0-5.398,4.479-9.774,10-9.774h81.002"/>
<path fill="#41AA27" d="M170.079,45.251h-41.01c-5.506,0-9.971-4.476-9.971-9.998V0.039"/>
<rect y="72.65" fill="#17AF17" width="155.195" height="73.701"/>
<g>
	<path fill="#FFFFFF" d="M73.252,89.342v6.183l-17.261,35.682h-10.37l17.262-33.685v-0.129H43.69v-8.051H73.252z"/>
	<path fill="#FFFFFF" d="M77.756,125.925l20.675-29.756v-0.258H79.689v-8.115h31.495v5.668l-20.225,29.369v0.258h20.546v8.115
		H77.756V125.925z"/>
</g>
</svg>
