<?xml version="1.0" encoding="utf-8"?>
<!-- Generator: Adobe Illustrator 17.0.0, SVG Export Plug-In . SVG Version: 6.00 Build 0)  -->
<!DOCTYPE svg PUBLIC "-//W3C//DTD SVG 1.1//EN" "http://www.w3.org/Graphics/SVG/1.1/DTD/svg11.dtd">
<svg version="1.1" id="Layer_1" xmlns="http://www.w3.org/2000/svg" xmlns:xlink="http://www.w3.org/1999/xlink" x="0px" y="0px"
	 width="170.079px" height="170.079px" viewBox="0 0 170.079 170.079" enable-background="new 0 0 170.079 170.079"
	 xml:space="preserve">
<path fill="#A49BEA" d="M170.079,45.334v115.01c0,5.399-4.477,9.774-10,9.774H38.096c-5.521,0-10-4.375-10-9.774V9.845
	c0-5.398,4.479-9.774,10-9.774h81.002"/>
<path fill="#7F47EA" d="M170.079,45.251h-41.01c-5.506,0-9.971-4.476-9.971-9.998V0.039"/>
<rect x="0.018" y="72.675" fill="#7F47EA" width="155.195" height="73.701"/>
<g>
	<path fill="#FFFFFF" d="M24.55,120.249l-3.092,11.143H11.281L24.55,87.981h12.881l13.461,43.411H40.329l-3.349-11.143H24.55z
		 M35.563,112.907l-2.706-9.21c-0.772-2.576-1.545-5.796-2.189-8.373h-0.129c-0.644,2.577-1.288,5.861-1.996,8.373l-2.576,9.21
		H35.563z"/>
	<path fill="#FFFFFF" d="M93.396,114.774c-0.193-5.217-0.387-11.529-0.387-17.841h-0.192c-1.353,5.539-3.156,11.722-4.831,16.811
		l-5.282,16.939H75.04l-4.638-16.81c-1.417-5.088-2.898-11.271-3.929-16.939h-0.129c-0.258,5.861-0.451,12.56-0.773,17.97
		l-0.772,16.488h-9.081l2.77-43.411h13.074l4.251,14.492c1.353,5.024,2.705,10.434,3.671,15.522h0.193
		c1.224-5.024,2.705-10.756,4.122-15.587l4.638-14.427h12.816l2.384,43.411H94.04L93.396,114.774z"/>
	<path fill="#FFFFFF" d="M111.166,88.561c3.156-0.515,7.857-0.901,13.074-0.901c6.441,0,10.949,0.966,14.041,3.414
		c2.576,2.061,3.993,5.088,3.993,9.081c0,5.539-3.929,9.339-7.664,10.692v0.193c3.027,1.224,4.701,4.122,5.797,8.115
		c1.353,4.895,2.705,10.562,3.542,12.237h-10.048c-0.708-1.224-1.738-4.766-3.026-10.112c-1.16-5.41-3.027-6.892-7.021-6.956h-2.963
		v17.068h-9.726L111.166,88.561L111.166,88.561z M120.891,107.239h3.864c4.895,0,7.793-2.447,7.793-6.248
		c0-3.993-2.705-5.99-7.213-6.054c-2.384,0-3.736,0.193-4.444,0.322C120.891,95.259,120.891,107.239,120.891,107.239z"/>
</g>
</svg>
