<?xml version="1.0" encoding="utf-8"?>
<!-- Generator: Adobe Illustrator 17.0.0, SVG Export Plug-In . SVG Version: 6.00 Build 0)  -->
<!DOCTYPE svg PUBLIC "-//W3C//DTD SVG 1.1//EN" "http://www.w3.org/Graphics/SVG/1.1/DTD/svg11.dtd">
<svg version="1.1" id="Layer_1" xmlns="http://www.w3.org/2000/svg" xmlns:xlink="http://www.w3.org/1999/xlink" x="0px" y="0px"
	 width="170.079px" height="170.079px" viewBox="0 0 170.079 170.079" enable-background="new 0 0 170.079 170.079"
	 xml:space="preserve">
<path fill="#A49BEA" d="M170.079,45.334v115.01c0,5.399-4.477,9.774-10,9.774H38.096c-5.521,0-10-4.375-10-9.774V9.845
	c0-5.398,4.479-9.774,10-9.774h81.002"/>
<path fill="#7F47EA" d="M170.079,45.251h-41.01c-5.506,0-9.971-4.476-9.971-9.998V0.039"/>
<rect y="72.72" fill="#7F47EA" width="155.195" height="73.701"/>
<g>
	<path fill="#FFFFFF" d="M42.658,120.133l-3.092,11.143H29.39l13.269-43.41h12.881L69,131.275H58.438l-3.349-11.143H42.658z
		 M53.672,112.791l-2.706-9.211c-0.772-2.576-1.545-5.796-2.189-8.373h-0.129c-0.644,2.577-1.288,5.861-1.996,8.373l-2.576,9.211
		H53.672z"/>
	<path fill="#FFFFFF" d="M81.233,131.275l-13.911-43.41h10.756l5.281,18.355c1.481,5.153,2.834,10.112,3.864,15.522h0.193
		c1.095-5.217,2.447-10.369,3.929-15.329l5.539-18.549h10.434l-14.62,43.41H81.233z"/>
	<path fill="#FFFFFF" d="M121.805,87.865v43.41h-9.854v-43.41H121.805z"/>
</g>
</svg>
