<?xml version="1.0" encoding="utf-8"?>
<!-- Generator: Adobe Illustrator 17.0.0, SVG Export Plug-In . SVG Version: 6.00 Build 0)  -->
<!DOCTYPE svg PUBLIC "-//W3C//DTD SVG 1.1//EN" "http://www.w3.org/Graphics/SVG/1.1/DTD/svg11.dtd">
<svg version="1.1" id="Layer_1" xmlns="http://www.w3.org/2000/svg" xmlns:xlink="http://www.w3.org/1999/xlink" x="0px" y="0px"
	 width="170.079px" height="170.079px" viewBox="0 0 170.079 170.079" enable-background="new 0 0 170.079 170.079"
	 xml:space="preserve">
<path fill="#65E5D6" d="M170.079,45.334v115.01c0,5.399-4.477,9.774-10,9.774H38.096c-5.521,0-10-4.375-10-9.774V9.845
	c0-5.398,4.479-9.774,10-9.774h81.002"/>
<path fill="#1CC6B6" d="M170.079,45.251h-41.01c-5.506,0-9.971-4.476-9.971-9.998V0.039"/>
<rect y="72.675" fill="#1CC6B6" width="155.195" height="73.701"/>
<g>
	<path fill="#FFFFFF" d="M15.321,88.335c2.576-0.516,7.793-0.901,12.688-0.901c5.989,0,9.661,0.579,12.816,2.447
		c3.027,1.61,5.218,4.572,5.218,8.502c0,3.864-2.255,7.471-7.149,9.274v0.129c4.959,1.353,8.63,5.088,8.63,10.691
		c0,3.929-1.803,7.021-4.508,9.21c-3.156,2.512-8.438,3.929-17.068,3.929c-4.83,0-8.438-0.321-10.627-0.644V88.335z M25.047,104.952
		h3.22c5.153,0,7.923-2.126,7.923-5.346c0-3.285-2.512-5.024-6.956-5.024c-2.126,0-3.35,0.129-4.187,0.258V104.952z M25.047,124.21
		c0.966,0.129,2.125,0.129,3.8,0.129c4.444,0,8.373-1.675,8.373-6.248c0-4.38-3.929-6.118-8.824-6.118h-3.349V124.21z"/>
	<path fill="#FFFFFF" d="M90.93,114.549c-0.193-5.217-0.387-11.529-0.387-17.841h-0.192c-1.353,5.539-3.156,11.722-4.831,16.811
		l-5.282,16.938h-7.664l-4.638-16.81c-1.417-5.089-2.898-11.271-3.929-16.939h-0.129c-0.258,5.861-0.451,12.56-0.773,17.97
		l-0.772,16.488h-9.081l2.77-43.411h13.074l4.251,14.492c1.353,5.023,2.705,10.434,3.671,15.522h0.193
		c1.224-5.024,2.705-10.757,4.122-15.587l4.638-14.428h12.816l2.384,43.411h-9.597L90.93,114.549z"/>
	<path fill="#FFFFFF" d="M108.701,88.335c3.027-0.516,7.278-0.901,13.268-0.901c6.055,0,10.37,1.159,13.269,3.478
		c2.77,2.189,4.637,5.797,4.637,10.048s-1.417,7.857-3.993,10.305c-3.349,3.156-8.309,4.573-14.105,4.573
		c-1.288,0-2.447-0.064-3.349-0.193v15.522h-9.726V88.335z M118.426,108.044c0.837,0.192,1.867,0.257,3.284,0.257
		c5.218,0,8.438-2.641,8.438-7.084c0-3.994-2.77-6.377-7.664-6.377c-1.997,0-3.35,0.193-4.058,0.387V108.044z"/>
</g>
</svg>
