<?xml version="1.0" encoding="utf-8"?>
<!-- Generator: Adobe Illustrator 17.0.0, SVG Export Plug-In . SVG Version: 6.00 Build 0)  -->
<!DOCTYPE svg PUBLIC "-//W3C//DTD SVG 1.1//EN" "http://www.w3.org/Graphics/SVG/1.1/DTD/svg11.dtd">
<svg version="1.1" id="Layer_1" xmlns="http://www.w3.org/2000/svg" xmlns:xlink="http://www.w3.org/1999/xlink" x="0px" y="0px"
	 width="170.079px" height="170.079px" viewBox="0 0 170.079 170.079" enable-background="new 0 0 170.079 170.079"
	 xml:space="preserve">
<path fill="#CAD2D8" d="M170.079,45.334v115.01c0,5.399-4.477,9.774-10,9.774H38.096c-5.521,0-10-4.375-10-9.774V9.845
	c0-5.398,4.479-9.774,10-9.774h81.002"/>
<path fill="#A9B3B7" d="M170.079,45.251h-41.01c-5.506,0-9.971-4.476-9.971-9.998V0.039"/>
<rect y="72.618" fill="#A9B3B7" width="155.195" height="73.701"/>
<g>
	<path fill="#FFFFFF" d="M25.175,88.279c3.606-0.58,8.309-0.901,13.268-0.901c8.244,0,13.59,1.481,17.776,4.637
		c4.509,3.349,7.343,8.694,7.343,16.359c0,8.309-3.027,14.041-7.214,17.583c-4.572,3.8-11.528,5.604-20.03,5.604
		c-5.088,0-8.695-0.322-11.143-0.645V88.279z M35.03,123.703c0.837,0.192,2.189,0.192,3.413,0.192
		c8.889,0.064,14.686-4.83,14.686-15.199c0.064-9.018-5.218-13.783-13.654-13.783c-2.19,0-3.607,0.192-4.444,0.386V123.703z"/>
	<path fill="#FFFFFF" d="M69.998,87.699h9.854v35.166h17.26v8.244H69.998V87.699z"/>
	<path fill="#FFFFFF" d="M102.904,87.699h9.854v35.166h17.261v8.244h-27.115V87.699z"/>
</g>
</svg>
