<?xml version="1.0" encoding="utf-8"?>
<!-- Generator: Adobe Illustrator 17.0.0, SVG Export Plug-In . SVG Version: 6.00 Build 0)  -->
<!DOCTYPE svg PUBLIC "-//W3C//DTD SVG 1.1//EN" "http://www.w3.org/Graphics/SVG/1.1/DTD/svg11.dtd">
<svg version="1.1" id="Layer_1" xmlns="http://www.w3.org/2000/svg" xmlns:xlink="http://www.w3.org/1999/xlink" x="0px" y="0px"
	 width="170.079px" height="170.079px" viewBox="0 0 170.079 170.079" enable-background="new 0 0 170.079 170.079"
	 xml:space="preserve">
<path fill="#CAD2D8" d="M170.079,45.334v115.01c0,5.399-4.477,9.774-10,9.774H38.096c-5.521,0-10-4.375-10-9.774V9.845
	c0-5.398,4.479-9.774,10-9.774h81.002"/>
<path fill="#A9B3B7" d="M170.079,45.251h-41.01c-5.506,0-9.971-4.476-9.971-9.998V0.039"/>
<rect y="72.683" fill="#A9B3B7" width="155.195" height="73.701"/>
<g>
	<path fill="#FFFFFF" d="M12.064,89.11c3.486-0.561,8.033-0.871,12.828-0.871c7.97,0,13.139,1.432,17.186,4.483
		c4.359,3.238,7.099,8.406,7.099,15.816c0,8.033-2.927,13.575-6.975,16.999c-4.42,3.674-11.145,5.417-19.365,5.417
		c-4.919,0-8.406-0.311-10.773-0.623C12.064,130.332,12.064,89.11,12.064,89.11z M21.591,123.358c0.809,0.187,2.116,0.187,3.3,0.187
		c8.594,0.062,14.199-4.67,14.199-14.695c0.062-8.718-5.045-13.325-13.201-13.325c-2.117,0-3.487,0.187-4.296,0.373L21.591,123.358
		L21.591,123.358z"/>
	<path fill="#FFFFFF" d="M90.892,114.454c-0.187-5.044-0.374-11.146-0.374-17.249h-0.186c-1.308,5.355-3.051,11.333-4.672,16.253
		l-5.106,16.377h-7.41l-4.484-16.252c-1.37-4.919-2.802-10.897-3.799-16.377h-0.125c-0.249,5.666-0.436,12.143-0.747,17.374
		l-0.746,15.941h-8.78l2.678-41.97h12.64l4.11,14.011c1.308,4.857,2.615,10.088,3.549,15.007h0.187
		c1.183-4.857,2.615-10.399,3.985-15.07l4.484-13.948h12.392l2.305,41.97h-9.278L90.892,114.454z"/>
	<path fill="#FFFFFF" d="M143.131,128.589c-2.927,0.996-8.469,2.366-14.011,2.366c-7.659,0-13.201-1.931-17.061-5.666
		c-3.86-3.612-5.979-9.091-5.916-15.256c0.062-13.948,10.212-21.918,23.974-21.918c5.418,0,9.59,1.059,11.645,2.054l-1.994,7.596
		c-2.304-0.996-5.169-1.806-9.776-1.806c-7.908,0-13.885,4.483-13.885,13.575c0,8.656,5.418,13.762,13.201,13.762
		c2.179,0,3.923-0.249,4.67-0.623v-8.781h-6.476v-7.411h15.63L143.131,128.589L143.131,128.589z"/>
</g>
</svg>
