<?xml version="1.0" encoding="utf-8"?>
<!-- Generator: Adobe Illustrator 17.0.0, SVG Export Plug-In . SVG Version: 6.00 Build 0)  -->
<!DOCTYPE svg PUBLIC "-//W3C//DTD SVG 1.1//EN" "http://www.w3.org/Graphics/SVG/1.1/DTD/svg11.dtd">
<svg version="1.1" id="Layer_1" xmlns="http://www.w3.org/2000/svg" xmlns:xlink="http://www.w3.org/1999/xlink" x="0px" y="0px"
	 width="170.079px" height="170.079px" viewBox="0 0 170.079 170.079" enable-background="new 0 0 170.079 170.079"
	 xml:space="preserve">
<path fill="#69BBFF" d="M170.079,45.334v115.01c0,5.399-4.477,9.774-10,9.774H38.096c-5.521,0-10-4.375-10-9.774V9.845
	c0-5.398,4.479-9.774,10-9.774h81.002"/>
<path fill="#4B92FF" d="M170.079,45.251h-41.01c-5.506,0-9.971-4.476-9.971-9.998V0.039"/>
<rect y="72.75" fill="#4B92FF" width="155.195" height="73.701"/>
<g>
	<path fill="#FFFFFF" d="M15.901,88.475c3.606-0.58,8.309-0.901,13.268-0.901c8.244,0,13.59,1.481,17.776,4.637
		c4.509,3.35,7.343,8.695,7.343,16.359c0,8.309-3.027,14.041-7.214,17.584c-4.572,3.8-11.528,5.603-20.03,5.603
		c-5.088,0-8.695-0.321-11.143-0.644V88.475z M25.755,123.899c0.837,0.193,2.189,0.193,3.413,0.193
		c8.889,0.064,14.686-4.83,14.686-15.2c0.064-9.017-5.218-13.783-13.654-13.783c-2.19,0-3.607,0.193-4.444,0.387V123.899z"/>
	<path fill="#FFFFFF" d="M100.462,109.15c0,14.234-8.631,22.864-21.319,22.864c-12.881,0-20.417-9.726-20.417-22.092
		c0-13.01,8.309-22.735,21.126-22.735C93.184,87.187,100.462,97.171,100.462,109.15z M69.096,109.729
		c0,8.502,3.993,14.492,10.562,14.492c6.634,0,10.434-6.312,10.434-14.749c0-7.794-3.736-14.492-10.499-14.492
		C72.961,94.98,69.096,101.293,69.096,109.729z"/>
	<path fill="#FFFFFF" d="M138.779,130.083c-1.804,0.901-5.861,1.867-11.143,1.867c-15.007,0-22.736-9.339-22.736-21.705
		c0-14.813,10.563-23.058,23.702-23.058c5.088,0,8.953,1.03,10.691,1.932l-1.996,7.794c-1.997-0.838-4.767-1.61-8.244-1.61
		c-7.794,0-13.848,4.702-13.848,14.363c0,8.694,5.152,14.169,13.912,14.169c2.963,0,6.247-0.644,8.18-1.417L138.779,130.083z"/>
</g>
</svg>
