<?xml version="1.0" encoding="utf-8"?>
<!-- Generator: Adobe Illustrator 17.0.0, SVG Export Plug-In . SVG Version: 6.00 Build 0)  -->
<!DOCTYPE svg PUBLIC "-//W3C//DTD SVG 1.1//EN" "http://www.w3.org/Graphics/SVG/1.1/DTD/svg11.dtd">
<svg version="1.1" id="Layer_1" xmlns="http://www.w3.org/2000/svg" xmlns:xlink="http://www.w3.org/1999/xlink" x="0px" y="0px"
	 width="170.079px" height="170.079px" viewBox="0 0 170.079 170.079" enable-background="new 0 0 170.079 170.079"
	 xml:space="preserve">
<path fill="#CAD2D8" d="M170.079,45.334v115.01c0,5.399-4.477,9.774-10,9.774H38.096c-5.521,0-10-4.375-10-9.774V9.845
	c0-5.398,4.479-9.774,10-9.774h81.002"/>
<path fill="#A9B3B7" d="M170.079,45.251h-41.01c-5.506,0-9.971-4.476-9.971-9.998V0.039"/>
<rect y="72.604" fill="#A9B3B7" width="155.195" height="73.701"/>
<g>
	<path fill="#FFFFFF" d="M52.644,112.804H36.671v10.305h17.841v8.051H26.817V87.75H53.61V95.8H36.671v9.017h15.973V112.804z"/>
	<path fill="#FFFFFF" d="M84.071,131.16l-3.929-7.857c-1.61-3.027-2.641-5.281-3.864-7.793h-0.129
		c-0.901,2.512-1.997,4.766-3.35,7.793l-3.606,7.857H57.986l12.56-21.963L58.437,87.75h11.271l3.8,7.922
		c1.288,2.641,2.254,4.767,3.285,7.214h0.128c1.031-2.77,1.868-4.702,2.963-7.214l3.672-7.922h11.206l-12.237,21.189l12.882,22.221
		H84.071z"/>
	<path fill="#FFFFFF" d="M126.51,112.804h-15.973v10.305h17.841v8.051h-27.695V87.75h26.793V95.8h-16.938v9.017h15.973V112.804z"/>
</g>
</svg>
