<?xml version="1.0" encoding="utf-8"?>
<!-- Generator: Adobe Illustrator 17.0.0, SVG Export Plug-In . SVG Version: 6.00 Build 0)  -->
<!DOCTYPE svg PUBLIC "-//W3C//DTD SVG 1.1//EN" "http://www.w3.org/Graphics/SVG/1.1/DTD/svg11.dtd">
<svg version="1.1" id="Layer_1" xmlns="http://www.w3.org/2000/svg" xmlns:xlink="http://www.w3.org/1999/xlink" x="0px" y="0px"
	 width="170.079px" height="170.079px" viewBox="0 0 170.079 170.079" enable-background="new 0 0 170.079 170.079"
	 xml:space="preserve">
<g>
	<path fill-rule="evenodd" clip-rule="evenodd" fill="#E59E00" d="M160.681,26.833H85.125l-8.243-14.131
		c-0.044-0.083-0.095-0.161-0.141-0.242l-0.027-0.046h-0.001c-1.561-2.67-4.451-4.469-7.767-4.469c-0.011,0-0.021,0.002-0.031,0.002
		V7.944H31.831v0.012c-3.368,0.077-6.277,1.999-7.754,4.8l-8.212,14.077H9.569c-5.216,0-9.444,4.229-9.444,9.444v113.333
		c0,5.216,4.229,9.444,9.444,9.444h151.111c5.216,0,9.444-4.228,9.444-9.444V36.278C170.125,31.062,165.897,26.833,160.681,26.833z"
		/>
</g>
<g>
	<path fill-rule="evenodd" clip-rule="evenodd" fill="#FFC83E" d="M9.523,45.667h151.111c5.216,0,9.444,4.229,9.444,9.444v94.444
		c0,5.216-4.228,9.444-9.444,9.444H9.523c-5.216,0-9.444-4.228-9.444-9.444V55.111C0.079,49.895,4.308,45.667,9.523,45.667z"/>
</g>
</svg>
