<?xml version="1.0" encoding="utf-8"?>
<!-- Generator: Adobe Illustrator 17.0.0, SVG Export Plug-In . SVG Version: 6.00 Build 0)  -->
<!DOCTYPE svg PUBLIC "-//W3C//DTD SVG 1.1//EN" "http://www.w3.org/Graphics/SVG/1.1/DTD/svg11.dtd">
<svg version="1.1" id="Layer_1" xmlns="http://www.w3.org/2000/svg" xmlns:xlink="http://www.w3.org/1999/xlink" x="0px" y="0px"
	 width="170.079px" height="170.079px" viewBox="0 0 170.079 170.079" enable-background="new 0 0 170.079 170.079"
	 xml:space="preserve">
<path fill="#626CB7" d="M170.079,45.334v115.01c0,5.399-4.477,9.774-10,9.774H38.096c-5.521,0-10-4.375-10-9.774V9.845
	c0-5.398,4.479-9.774,10-9.774h81.002"/>
<path fill="#2D3A86" d="M170.079,45.251h-41.01c-5.506,0-9.971-4.476-9.971-9.998V0.039"/>
<rect y="72.729" fill="#2D3A86" width="155.195" height="73.701"/>
<g>
	<path fill="#FFFFFF" d="M15.068,90.368v14.765h14.309V90.368h8.665v38.423h-8.665v-16.076H15.068v16.076H6.346V90.368H15.068z"/>
	<path fill="#FFFFFF" d="M53.03,97.665H42.712v-7.297h29.529v7.297H61.752v31.126H53.03V97.665z"/>
	<path fill="#FFFFFF" d="M109.12,114.083c-0.171-4.617-0.342-10.204-0.342-15.791h-0.171c-1.197,4.902-2.793,10.375-4.275,14.879
		l-4.675,14.993h-6.783l-4.104-14.879c-1.255-4.504-2.565-9.977-3.478-14.993h-0.114c-0.228,5.188-0.399,11.116-0.685,15.905
		l-0.684,14.594h-8.038l2.451-38.423h11.573l3.763,12.826c1.197,4.447,2.395,9.235,3.25,13.739h0.171
		c1.083-4.446,2.394-9.521,3.648-13.796l4.104-12.77h11.344l2.109,38.423h-8.494L109.12,114.083z"/>
	<path fill="#FFFFFF" d="M124.849,90.368h8.722v31.126h15.278v7.297h-24V90.368z"/>
</g>
</svg>
