<?xml version="1.0" encoding="utf-8"?>
<!-- Generator: Adobe Illustrator 17.0.0, SVG Export Plug-In . SVG Version: 6.00 Build 0)  -->
<!DOCTYPE svg PUBLIC "-//W3C//DTD SVG 1.1//EN" "http://www.w3.org/Graphics/SVG/1.1/DTD/svg11.dtd">
<svg version="1.1" id="Layer_1" xmlns="http://www.w3.org/2000/svg" xmlns:xlink="http://www.w3.org/1999/xlink" x="0px" y="0px"
	 width="170.079px" height="170.079px" viewBox="0 0 170.079 170.079" enable-background="new 0 0 170.079 170.079"
	 xml:space="preserve">
<path fill="#65E5D6" d="M170.079,45.334v115.01c0,5.399-4.477,9.774-10,9.774H38.096c-5.521,0-10-4.375-10-9.774V9.845
	c0-5.398,4.479-9.774,10-9.774h81.002"/>
<path fill="#1CC6B6" d="M170.079,45.251h-41.01c-5.506,0-9.971-4.476-9.971-9.998V0.039"/>
<rect y="72.73" fill="#1CC6B6" width="155.195" height="73.701"/>
<g>
	<path fill="#FFFFFF" d="M20.99,87.746h9.79v27.438c0,12.366-5.926,16.682-15.458,16.682c-2.255,0-5.217-0.387-7.149-1.031
		l1.095-7.922c1.353,0.451,3.092,0.773,5.024,0.773c4.122,0,6.698-1.868,6.698-8.631V87.746z"/>
	<path fill="#FFFFFF" d="M38.955,88.325c3.027-0.515,7.278-0.901,13.268-0.901c6.055,0,10.37,1.159,13.269,3.478
		c2.77,2.189,4.637,5.796,4.637,10.047s-1.417,7.858-3.993,10.306c-3.349,3.155-8.309,4.572-14.105,4.572
		c-1.288,0-2.447-0.064-3.349-0.192v15.521h-9.726V88.325z M48.681,108.034c0.837,0.193,1.867,0.258,3.284,0.258
		c5.218,0,8.438-2.641,8.438-7.085c0-3.993-2.77-6.376-7.664-6.376c-1.997,0-3.35,0.193-4.058,0.386V108.034z"/>
	<path fill="#FFFFFF" d="M102.199,112.801H86.226v10.305h17.841v8.051H76.371v-43.41h26.793v8.051H86.226v9.017h15.973V112.801z"/>
	<path fill="#FFFFFF" d="M147.023,129.16c-3.027,1.03-8.76,2.447-14.492,2.447c-7.922,0-13.654-1.997-17.647-5.861
		c-3.993-3.735-6.184-9.403-6.119-15.779c0.064-14.428,10.563-22.671,24.797-22.671c5.604,0,9.919,1.094,12.045,2.125l-2.062,7.857
		c-2.383-1.03-5.346-1.868-10.112-1.868c-8.18,0-14.362,4.638-14.362,14.041c0,8.953,5.604,14.234,13.654,14.234
		c2.254,0,4.058-0.258,4.83-0.645v-9.081h-6.698v-7.665h16.167V129.16z"/>
</g>
</svg>
