<?xml version="1.0" encoding="utf-8"?>
<!-- Generator: Adobe Illustrator 17.0.0, SVG Export Plug-In . SVG Version: 6.00 Build 0)  -->
<!DOCTYPE svg PUBLIC "-//W3C//DTD SVG 1.1//EN" "http://www.w3.org/Graphics/SVG/1.1/DTD/svg11.dtd">
<svg version="1.1" id="Layer_1" xmlns="http://www.w3.org/2000/svg" xmlns:xlink="http://www.w3.org/1999/xlink" x="0px" y="0px"
	 width="170.079px" height="170.079px" viewBox="0 0 170.079 170.079" enable-background="new 0 0 170.079 170.079"
	 xml:space="preserve">
<path fill="#FCCC42" d="M170.079,45.334v115.01c0,5.399-4.477,9.774-10,9.774H38.096c-5.521,0-10-4.375-10-9.774V9.845
	c0-5.398,4.479-9.774,10-9.774h81.002"/>
<path fill="#E58800" d="M170.079,45.251h-41.01c-5.506,0-9.971-4.476-9.971-9.998V0.039"/>
<rect y="72.687" fill="#E58800" width="155.195" height="73.701"/>
<g>
	<path fill="#FFFFFF" d="M21.149,87.832h9.854v35.167h17.261v8.244H21.149V87.832z"/>
	<path fill="#FFFFFF" d="M91.35,109.087c0,14.234-8.631,22.865-21.32,22.865c-12.881,0-20.417-9.726-20.417-22.092
		c0-13.01,8.309-22.736,21.126-22.736C84.071,87.124,91.35,97.107,91.35,109.087z M59.983,109.666
		c0,8.502,3.993,14.492,10.562,14.492c6.634,0,10.435-6.312,10.435-14.749c0-7.793-3.736-14.492-10.499-14.492
		C63.847,94.917,59.983,101.229,59.983,109.666z"/>
	<path fill="#FFFFFF" d="M134.046,129.246c-3.027,1.03-8.76,2.447-14.492,2.447c-7.922,0-13.654-1.997-17.647-5.861
		c-3.993-3.736-6.184-9.403-6.119-15.78c0.064-14.427,10.563-22.671,24.797-22.671c5.604,0,9.919,1.095,12.045,2.125l-2.062,7.857
		c-2.383-1.03-5.346-1.868-10.112-1.868c-8.18,0-14.362,4.637-14.362,14.041c0,8.953,5.604,14.234,13.654,14.234
		c2.254,0,4.058-0.258,4.83-0.644v-9.082h-6.698v-7.665h16.167V129.246z"/>
</g>
</svg>
