<?xml version="1.0" encoding="utf-8"?>
<!-- Generator: Adobe Illustrator 17.0.0, SVG Export Plug-In . SVG Version: 6.00 Build 0)  -->
<!DOCTYPE svg PUBLIC "-//W3C//DTD SVG 1.1//EN" "http://www.w3.org/Graphics/SVG/1.1/DTD/svg11.dtd">
<svg version="1.1" id="Layer_1" xmlns="http://www.w3.org/2000/svg" xmlns:xlink="http://www.w3.org/1999/xlink" x="0px" y="0px"
	 width="170.079px" height="170.079px" viewBox="0 0 170.079 170.079" enable-background="new 0 0 170.079 170.079"
	 xml:space="preserve">
<path fill="#A49BEA" d="M170.079,45.334v115.01c0,5.399-4.477,9.774-10,9.774H38.096c-5.521,0-10-4.375-10-9.774V9.845
	c0-5.398,4.479-9.774,10-9.774h81.002"/>
<path fill="#7F47EA" d="M170.079,45.251h-41.01c-5.506,0-9.971-4.476-9.971-9.998V0.039"/>
<rect y="72.646" fill="#7F47EA" width="155.195" height="73.701"/>
<g>
	<path fill="#FFFFFF" d="M53.805,114.746c-0.193-5.217-0.387-11.528-0.387-17.841h-0.192c-1.353,5.539-3.156,11.723-4.831,16.811
		l-5.281,16.939h-7.664l-4.638-16.811c-1.417-5.088-2.898-11.271-3.929-16.939h-0.129c-0.258,5.861-0.451,12.56-0.773,17.97
		l-0.772,16.488h-9.081l2.77-43.41h13.074l4.251,14.491c1.353,5.024,2.705,10.435,3.671,15.522h0.193
		c1.224-5.023,2.705-10.756,4.122-15.587l4.638-14.427h12.816l2.384,43.41h-9.597L53.805,114.746z"/>
	<path fill="#FFFFFF" d="M71.575,88.532c3.027-0.515,7.278-0.901,13.268-0.901c6.055,0,10.37,1.159,13.269,3.479
		c2.77,2.189,4.637,5.796,4.637,10.047s-1.417,7.858-3.993,10.306c-3.349,3.155-8.309,4.572-14.105,4.572
		c-1.288,0-2.447-0.064-3.349-0.192v15.521h-9.726V88.532z M81.301,108.241c0.837,0.193,1.867,0.258,3.284,0.258
		c5.218,0,8.438-2.641,8.438-7.085c0-3.993-2.77-6.376-7.664-6.376c-1.997,0-3.35,0.193-4.058,0.386V108.241z"/>
	<path fill="#FFFFFF" d="M124.769,131.363v-9.982h-18.549v-6.377l15.844-25.505h11.98v24.539h5.023v7.343h-5.023v9.982H124.769z
		 M124.769,114.038v-9.274c0-2.513,0.129-5.089,0.322-7.794h-0.258c-1.353,2.705-2.447,5.153-3.864,7.794l-5.604,9.146v0.129
		H124.769z"/>
</g>
</svg>
