<?xml version="1.0" encoding="utf-8"?>
<!-- Generator: Adobe Illustrator 17.0.0, SVG Export Plug-In . SVG Version: 6.00 Build 0)  -->
<!DOCTYPE svg PUBLIC "-//W3C//DTD SVG 1.1//EN" "http://www.w3.org/Graphics/SVG/1.1/DTD/svg11.dtd">
<svg version="1.1" id="Layer_1" xmlns="http://www.w3.org/2000/svg" xmlns:xlink="http://www.w3.org/1999/xlink" x="0px" y="0px"
	 width="170.079px" height="170.079px" viewBox="0 0 170.079 170.079" enable-background="new 0 0 170.079 170.079"
	 xml:space="preserve">
<path fill="#CAD2D8" d="M170.079,45.334v115.01c0,5.399-4.477,9.774-10,9.774H38.096c-5.521,0-10-4.375-10-9.774V9.845
	c0-5.398,4.479-9.774,10-9.774h81.002"/>
<path fill="#A9B3B7" d="M170.079,45.251h-41.01c-5.506,0-9.971-4.476-9.971-9.998V0.039"/>
<rect y="72.702" fill="#A9B3B7" width="155.195" height="73.701"/>
<g>
	<path fill="#FFFFFF" d="M36.704,109.216c0,10.609-6.433,17.041-15.89,17.041c-9.601,0-15.218-7.248-15.218-16.465
		c0-9.697,6.193-16.945,15.746-16.945C31.279,92.847,36.704,100.287,36.704,109.216z M13.326,109.648
		c0,6.337,2.976,10.802,7.872,10.802c4.944,0,7.777-4.705,7.777-10.993c0-5.809-2.784-10.801-7.825-10.801
		C16.206,98.656,13.326,103.36,13.326,109.648z"/>
	<path fill="#FFFFFF" d="M46.397,99.519h-8.689v-6.145h24.866v6.145h-8.832v26.211h-7.345V99.519z"/>
	<path fill="#FFFFFF" d="M73.804,93.374v12.434h12.049V93.374h7.297v32.355h-7.297v-13.537H73.804v13.537H66.46V93.374H73.804z"/>
	<path fill="#FFFFFF" d="M118.782,112.048h-11.905v7.681h13.297v6.001H99.532V93.374h19.97v6.001h-12.625v6.721h11.905V112.048z"/>
	<path fill="#FFFFFF" d="M125.164,93.807c2.353-0.384,5.856-0.672,9.745-0.672c4.801,0,8.161,0.72,10.465,2.544
		c1.92,1.536,2.977,3.792,2.977,6.769c0,4.128-2.929,6.961-5.713,7.969v0.144c2.257,0.912,3.505,3.072,4.32,6.049
		c1.009,3.648,2.017,7.873,2.641,9.121h-7.489c-0.527-0.912-1.296-3.553-2.256-7.537c-0.864-4.032-2.256-5.136-5.232-5.185h-2.208
		v12.722h-7.249V93.807z M132.413,107.728h2.88c3.648,0,5.809-1.824,5.809-4.656c0-2.977-2.016-4.465-5.376-4.513
		c-1.776,0-2.784,0.145-3.312,0.24V107.728z"/>
</g>
</svg>
