<?xml version="1.0" encoding="utf-8"?>
<!-- Generator: Adobe Illustrator 17.0.0, SVG Export Plug-In . SVG Version: 6.00 Build 0)  -->
<!DOCTYPE svg PUBLIC "-//W3C//DTD SVG 1.1//EN" "http://www.w3.org/Graphics/SVG/1.1/DTD/svg11.dtd">
<svg version="1.1" id="Layer_1" xmlns="http://www.w3.org/2000/svg" xmlns:xlink="http://www.w3.org/1999/xlink" x="0px" y="0px"
	 width="170.079px" height="170.079px" viewBox="0 0 170.079 170.079" enable-background="new 0 0 170.079 170.079"
	 xml:space="preserve">
<path fill="#F88C7E" d="M170.079,45.334v115.01c0,5.399-4.477,9.774-10,9.774H38.096c-5.521,0-10-4.375-10-9.774V9.845
	c0-5.398,4.479-9.774,10-9.774h81.002"/>
<path fill="#F3523D" d="M170.079,45.251h-41.01c-5.506,0-9.971-4.476-9.971-9.998V0.039"/>
<rect y="72.728" fill="#F3523D" width="155.195" height="73.701"/>
<g>
	<path fill="#FFFFFF" d="M25.143,88.614c3.027-0.516,7.278-0.901,13.268-0.901c6.055,0,10.37,1.159,13.269,3.478
		c2.77,2.189,4.637,5.797,4.637,10.048s-1.417,7.857-3.993,10.305c-3.349,3.156-8.309,4.573-14.105,4.573
		c-1.288,0-2.447-0.064-3.349-0.193v15.522h-9.726V88.614z M34.868,108.323c0.837,0.192,1.867,0.257,3.284,0.257
		c5.218,0,8.438-2.641,8.438-7.084c0-3.994-2.77-6.377-7.664-6.377c-1.997,0-3.35,0.193-4.058,0.387V108.323z"/>
	<path fill="#FFFFFF" d="M62.559,88.614c3.027-0.516,7.278-0.901,13.268-0.901c6.055,0,10.37,1.159,13.268,3.478
		c2.77,2.189,4.637,5.797,4.637,10.048s-1.417,7.857-3.993,10.305c-3.349,3.156-8.308,4.573-14.105,4.573
		c-1.288,0-2.447-0.064-3.349-0.193v15.522h-9.726V88.614z M72.284,108.323c0.837,0.192,1.867,0.257,3.284,0.257
		c5.218,0,8.438-2.641,8.438-7.084c0-3.994-2.77-6.377-7.664-6.377c-1.997,0-3.35,0.193-4.058,0.387V108.323z"/>
	<path fill="#FFFFFF" d="M108.347,96.278H96.689v-8.244h33.363v8.244h-11.851v35.167h-9.854V96.278z"/>
</g>
</svg>
