<?xml version="1.0" encoding="utf-8"?>
<!-- Generator: Adobe Illustrator 17.0.0, SVG Export Plug-In . SVG Version: 6.00 Build 0)  -->
<!DOCTYPE svg PUBLIC "-//W3C//DTD SVG 1.1//EN" "http://www.w3.org/Graphics/SVG/1.1/DTD/svg11.dtd">
<svg version="1.1" id="Layer_1" xmlns="http://www.w3.org/2000/svg" xmlns:xlink="http://www.w3.org/1999/xlink" x="0px" y="0px"
	 width="170.079px" height="170.079px" viewBox="0 0 170.079 170.079" enable-background="new 0 0 170.079 170.079"
	 xml:space="preserve">
<path fill="#6AD0FD" d="M170.079,45.334v115.01c0,5.399-4.477,9.774-10,9.774H38.096c-5.521,0-10-4.375-10-9.774V9.845
	c0-5.398,4.479-9.774,10-9.774h81.002"/>
<path fill="#2FB0F4" d="M170.079,45.251h-41.01c-5.506,0-9.971-4.476-9.971-9.998V0.039"/>
<rect y="72.771" fill="#2FB0F4" width="155.195" height="73.701"/>
<g>
	<path fill="#FFFFFF" d="M22.308,88.528c3.027-0.515,7.278-0.901,13.268-0.901c6.055,0,10.37,1.159,13.269,3.478
		c2.77,2.189,4.637,5.796,4.637,10.047s-1.417,7.858-3.993,10.305c-3.349,3.156-8.309,4.573-14.105,4.573
		c-1.288,0-2.447-0.064-3.349-0.193v15.522h-9.726V88.528z M32.034,108.237c0.837,0.193,1.867,0.257,3.284,0.257
		c5.218,0,8.438-2.641,8.438-7.084c0-3.994-2.77-6.376-7.664-6.376c-1.997,0-3.35,0.193-4.058,0.386V108.237z"/>
	<path fill="#FFFFFF" d="M60.046,121.247c2.641,1.353,6.698,2.705,10.885,2.705c4.508,0,6.892-1.868,6.892-4.702
		c0-2.705-2.062-4.251-7.278-6.119c-7.214-2.512-11.915-6.505-11.915-12.817c0-7.407,6.183-13.075,16.424-13.075
		c4.895,0,8.502,1.031,11.078,2.19l-2.19,7.922c-1.738-0.837-4.83-2.062-9.081-2.062s-6.312,1.933-6.312,4.187
		c0,2.77,2.448,3.994,8.052,6.119c7.664,2.833,11.271,6.827,11.271,12.946c0,7.278-5.603,13.461-17.519,13.461
		c-4.959,0-9.854-1.288-12.302-2.641L60.046,121.247z"/>
	<path fill="#FFFFFF" d="M94.5,88.528c3.606-0.58,8.309-0.901,13.268-0.901c8.244,0,13.59,1.481,17.776,4.637
		c4.509,3.349,7.343,8.695,7.343,16.359c0,8.309-3.027,14.041-7.214,17.583c-4.572,3.8-11.528,5.603-20.03,5.603
		c-5.088,0-8.695-0.322-11.143-0.644V88.528z M104.355,123.952c0.837,0.193,2.189,0.193,3.413,0.193
		c8.889,0.064,14.686-4.83,14.686-15.2c0.064-9.017-5.218-13.783-13.654-13.783c-2.19,0-3.607,0.193-4.444,0.386V123.952z"/>
</g>
</svg>
