<?xml version="1.0" encoding="utf-8"?>
<!-- Generator: Adobe Illustrator 17.0.0, SVG Export Plug-In . SVG Version: 6.00 Build 0)  -->
<!DOCTYPE svg PUBLIC "-//W3C//DTD SVG 1.1//EN" "http://www.w3.org/Graphics/SVG/1.1/DTD/svg11.dtd">
<svg version="1.1" id="Layer_1" xmlns="http://www.w3.org/2000/svg" xmlns:xlink="http://www.w3.org/1999/xlink" x="0px" y="0px"
	 width="170.079px" height="170.079px" viewBox="0 0 170.079 170.079" enable-background="new 0 0 170.079 170.079"
	 xml:space="preserve">
<path fill="#FCCC42" d="M170.079,45.334v115.01c0,5.399-4.477,9.774-10,9.774H38.096c-5.521,0-10-4.375-10-9.774V9.845
	c0-5.398,4.479-9.774,10-9.774h81.002"/>
<path fill="#E58800" d="M170.079,45.251h-41.01c-5.506,0-9.971-4.476-9.971-9.998V0.039"/>
<rect y="72.755" fill="#E58800" width="155.195" height="73.701"/>
<g>
	<path fill="#FFFFFF" d="M27.59,88.641c3.156-0.516,7.857-0.901,13.074-0.901c6.441,0,10.949,0.966,14.041,3.413
		c2.576,2.062,3.993,5.088,3.993,9.081c0,5.539-3.929,9.34-7.664,10.692v0.193c3.027,1.224,4.701,4.122,5.797,8.115
		c1.353,4.895,2.705,10.563,3.542,12.237H50.325c-0.708-1.224-1.738-4.767-3.026-10.112c-1.16-5.41-3.027-6.892-7.021-6.956h-2.963
		v17.068H27.59V88.641z M37.316,107.319h3.864c4.895,0,7.793-2.447,7.793-6.247c0-3.993-2.705-5.99-7.213-6.055
		c-2.384,0-3.736,0.193-4.444,0.322V107.319z"/>
	<path fill="#FFFFFF" d="M74.151,96.305H62.493v-8.244h33.364v8.244H84.006v35.167h-9.854V96.305z"/>
	<path fill="#FFFFFF" d="M101.069,88.061h26.536v8.051h-16.682v9.919h15.586v7.986h-15.586v17.455h-9.854V88.061z"/>
</g>
</svg>
