<?xml version="1.0" encoding="utf-8"?>
<!-- Generator: Adobe Illustrator 17.0.0, SVG Export Plug-In . SVG Version: 6.00 Build 0)  -->
<!DOCTYPE svg PUBLIC "-//W3C//DTD SVG 1.1//EN" "http://www.w3.org/Graphics/SVG/1.1/DTD/svg11.dtd">
<svg version="1.1" id="Layer_1" xmlns="http://www.w3.org/2000/svg" xmlns:xlink="http://www.w3.org/1999/xlink" x="0px" y="0px"
	 width="170.079px" height="170.079px" viewBox="0 0 170.079 170.079" enable-background="new 0 0 170.079 170.079"
	 xml:space="preserve">
<path fill="#A49BEA" d="M170.079,45.334v115.01c0,5.399-4.477,9.774-10,9.774H38.096c-5.521,0-10-4.375-10-9.774V9.845
	c0-5.398,4.479-9.774,10-9.774h81.002"/>
<path fill="#7F47EA" d="M170.079,45.251h-41.01c-5.506,0-9.971-4.476-9.971-9.998V0.039"/>
<rect y="72.695" fill="#7F47EA" width="155.195" height="73.701"/>
<g>
	<path fill="#FFFFFF" d="M19.508,121.171c2.641,1.353,6.698,2.705,10.885,2.705c4.508,0,6.892-1.867,6.892-4.701
		c0-2.705-2.062-4.251-7.278-6.119c-7.214-2.512-11.915-6.505-11.915-12.817c0-7.406,6.183-13.074,16.424-13.074
		c4.895,0,8.502,1.03,11.078,2.189l-2.19,7.923c-1.738-0.838-4.83-2.062-9.081-2.062s-6.312,1.933-6.312,4.187
		c0,2.77,2.448,3.993,8.052,6.119c7.664,2.833,11.271,6.827,11.271,12.945c0,7.278-5.603,13.461-17.519,13.461
		c-4.959,0-9.854-1.288-12.302-2.641L19.508,121.171z"/>
	<path fill="#FFFFFF" d="M60.982,131.283L50.676,87.872h10.499l3.284,17.905c0.967,5.153,1.868,10.756,2.576,15.136h0.129
		c0.709-4.701,1.739-9.918,2.834-15.265l3.672-17.776h10.434l3.478,18.292c0.967,5.088,1.675,9.726,2.319,14.556h0.129
		c0.644-4.83,1.609-9.918,2.512-15.071l3.542-17.776h9.983L94.86,131.283H84.233l-3.671-18.679
		c-0.838-4.379-1.546-8.438-2.062-13.396h-0.129c-0.772,4.896-1.481,9.018-2.512,13.396l-4.122,18.679H60.982z"/>
	<path fill="#FFFFFF" d="M111.148,87.872h26.536v8.051h-16.682v9.919h15.586v7.986h-15.586v17.455h-9.854V87.872z"/>
</g>
</svg>
