<?xml version="1.0" encoding="utf-8"?>
<!-- Generator: Adobe Illustrator 17.0.0, SVG Export Plug-In . SVG Version: 6.00 Build 0)  -->
<!DOCTYPE svg PUBLIC "-//W3C//DTD SVG 1.1//EN" "http://www.w3.org/Graphics/SVG/1.1/DTD/svg11.dtd">
<svg version="1.1" id="Layer_1" xmlns="http://www.w3.org/2000/svg" xmlns:xlink="http://www.w3.org/1999/xlink" x="0px" y="0px"
	 width="170.079px" height="170.079px" viewBox="0 0 170.079 170.079" enable-background="new 0 0 170.079 170.079"
	 xml:space="preserve">
<path fill="#65E5D6" d="M170.079,45.334v115.01c0,5.399-4.477,9.774-10,9.774H38.096c-5.521,0-10-4.375-10-9.774V9.845
	c0-5.398,4.479-9.774,10-9.774h81.002"/>
<path fill="#1CC6B6" d="M170.079,45.251h-41.01c-5.506,0-9.971-4.476-9.971-9.998V0.039"/>
<rect y="72.567" fill="#1CC6B6" width="155.195" height="73.701"/>
<g>
	<path fill="#FFFFFF" d="M30.714,95.956H19.056v-8.244h33.363v8.244H40.569v35.167h-9.854V95.956z"/>
	<path fill="#FFFFFF" d="M92.027,129.126c-3.027,1.03-8.76,2.447-14.492,2.447c-7.922,0-13.654-1.997-17.647-5.861
		c-3.993-3.736-6.184-9.403-6.119-15.78c0.064-14.427,10.563-22.671,24.797-22.671c5.604,0,9.919,1.095,12.045,2.125l-2.062,7.857
		c-2.383-1.03-5.346-1.868-10.112-1.868c-8.18,0-14.362,4.637-14.362,14.041c0,8.953,5.604,14.234,13.654,14.234
		c2.254,0,4.058-0.258,4.83-0.644v-9.082H75.86v-7.665h16.167V129.126z"/>
	<path fill="#FFFFFF" d="M109.797,119.98l-3.092,11.143H96.529l13.269-43.411h12.881l13.461,43.411h-10.562l-3.349-11.143H109.797z
		 M120.811,112.638l-2.706-9.21c-0.772-2.576-1.545-5.796-2.189-8.373h-0.129c-0.644,2.577-1.288,5.861-1.996,8.373l-2.576,9.21
		H120.811z"/>
</g>
</svg>
