<?xml version="1.0" encoding="utf-8"?>
<!-- Generator: Adobe Illustrator 17.0.0, SVG Export Plug-In . SVG Version: 6.00 Build 0)  -->
<!DOCTYPE svg PUBLIC "-//W3C//DTD SVG 1.1//EN" "http://www.w3.org/Graphics/SVG/1.1/DTD/svg11.dtd">
<svg version="1.1" id="Layer_1" xmlns="http://www.w3.org/2000/svg" xmlns:xlink="http://www.w3.org/1999/xlink" x="0px" y="0px"
	 width="170.079px" height="170.079px" viewBox="0 0 170.079 170.079" enable-background="new 0 0 170.079 170.079"
	 xml:space="preserve">
<path fill="#65E5D6" d="M170.079,45.334v115.01c0,5.399-4.477,9.774-10,9.774H38.096c-5.521,0-10-4.375-10-9.774V9.845
	c0-5.398,4.479-9.774,10-9.774h81.002"/>
<path fill="#1CC6B6" d="M170.079,45.251h-41.01c-5.506,0-9.971-4.476-9.971-9.998V0.039"/>
<rect y="72.578" fill="#1CC6B6" width="155.195" height="73.701"/>
<g>
	<path fill="#FFFFFF" d="M30.554,95.967H18.896v-8.244h33.363v8.244H40.409v35.167h-9.854V95.967z"/>
	<path fill="#FFFFFF" d="M67.326,87.723v43.411h-9.854V87.723H67.326z"/>
	<path fill="#FFFFFF" d="M75.825,87.723h26.536v8.051H85.679v9.919h15.585v7.986H85.679v17.455h-9.854V87.723z"/>
	<path fill="#FFFFFF" d="M109.763,87.723h26.536v8.051h-16.682v9.919h15.586v7.986h-15.586v17.455h-9.854V87.723z"/>
</g>
</svg>
