<?xml version="1.0" encoding="utf-8"?>
<!-- Generator: Adobe Illustrator 17.0.0, SVG Export Plug-In . SVG Version: 6.00 Build 0)  -->
<!DOCTYPE svg PUBLIC "-//W3C//DTD SVG 1.1//EN" "http://www.w3.org/Graphics/SVG/1.1/DTD/svg11.dtd">
<svg version="1.1" id="Layer_1" xmlns="http://www.w3.org/2000/svg" xmlns:xlink="http://www.w3.org/1999/xlink" x="0px" y="0px"
	 width="170.079px" height="170.079px" viewBox="0 0 170.079 170.079" enable-background="new 0 0 170.079 170.079"
	 xml:space="preserve">
<path fill="#CAD2D8" d="M170.079,45.334v115.01c0,5.399-4.477,9.774-10,9.774H38.096c-5.521,0-10-4.375-10-9.774V9.845
	c0-5.398,4.479-9.774,10-9.774h81.002"/>
<path fill="#A9B3B7" d="M170.079,45.251h-41.01c-5.506,0-9.971-4.476-9.971-9.998V0.039"/>
<rect y="72.563" fill="#A9B3B7" width="155.195" height="73.701"/>
<g>
	<path fill="#FFFFFF" d="M31.422,95.952H19.764v-8.244h33.363v8.244H41.277v35.167h-9.854V95.952z"/>
	<path fill="#FFFFFF" d="M96.213,108.963c0,14.234-8.631,22.864-21.32,22.864c-12.881,0-20.417-9.726-20.417-22.092
		C54.476,96.725,62.785,87,75.602,87C88.935,87,96.213,96.983,96.213,108.963z M64.846,109.542c0,8.502,3.993,14.492,10.562,14.492
		c6.634,0,10.435-6.312,10.435-14.749c0-7.794-3.736-14.492-10.499-14.492C68.711,94.793,64.846,101.105,64.846,109.542z"/>
	<path fill="#FFFFFF" d="M102.648,88.288c3.156-0.516,7.857-0.901,13.074-0.901c6.441,0,10.949,0.966,14.041,3.413
		c2.576,2.062,3.993,5.088,3.993,9.081c0,5.539-3.929,9.34-7.664,10.692v0.193c3.027,1.224,4.701,4.122,5.797,8.115
		c1.353,4.895,2.705,10.562,3.542,12.237h-10.048c-0.708-1.224-1.738-4.767-3.026-10.112c-1.16-5.41-3.027-6.892-7.021-6.956h-2.963
		v17.068h-9.726V88.288z M112.373,106.965h3.864c4.895,0,7.793-2.447,7.793-6.247c0-3.993-2.705-5.99-7.213-6.055
		c-2.384,0-3.736,0.193-4.444,0.322V106.965z"/>
</g>
</svg>
