<?xml version="1.0" encoding="utf-8"?>
<!-- Generator: Adobe Illustrator 17.0.0, SVG Export Plug-In . SVG Version: 6.00 Build 0)  -->
<!DOCTYPE svg PUBLIC "-//W3C//DTD SVG 1.1//EN" "http://www.w3.org/Graphics/SVG/1.1/DTD/svg11.dtd">
<svg version="1.1" id="Layer_1" xmlns="http://www.w3.org/2000/svg" xmlns:xlink="http://www.w3.org/1999/xlink" x="0px" y="0px"
	 width="170.079px" height="170.079px" viewBox="0 0 170.079 170.079" enable-background="new 0 0 170.079 170.079"
	 xml:space="preserve">
<path fill="#FCCC42" d="M170.079,45.334v115.01c0,5.399-4.477,9.774-10,9.774H38.096c-5.521,0-10-4.375-10-9.774V9.845
	c0-5.398,4.479-9.774,10-9.774h81.002"/>
<path fill="#E58800" d="M170.079,45.251h-41.01c-5.506,0-9.971-4.476-9.971-9.998V0.039"/>
<rect y="72.682" fill="#E58800" width="155.195" height="73.701"/>
<g>
	<path fill="#FFFFFF" d="M34.419,96.072H22.76v-8.244h33.363v8.244H44.273v35.166h-9.854V96.072z"/>
	<path fill="#FFFFFF" d="M85.359,131.238l-3.929-7.857c-1.61-3.027-2.641-5.281-3.864-7.793h-0.129
		c-0.901,2.512-1.997,4.766-3.35,7.793l-3.606,7.857H59.274l12.56-21.963L59.725,87.827h11.271l3.8,7.922
		c1.288,2.641,2.254,4.767,3.285,7.214h0.128c1.031-2.77,1.868-4.702,2.963-7.214l3.672-7.922H96.05l-12.237,21.189l12.881,22.221
		H85.359z"/>
	<path fill="#FFFFFF" d="M110.73,96.072H99.071v-8.244h33.363v8.244h-11.851v35.166h-9.854V96.072z"/>
</g>
</svg>
