<?xml version="1.0" encoding="utf-8"?>
<!-- Generator: Adobe Illustrator 17.0.0, SVG Export Plug-In . SVG Version: 6.00 Build 0)  -->
<!DOCTYPE svg PUBLIC "-//W3C//DTD SVG 1.1//EN" "http://www.w3.org/Graphics/SVG/1.1/DTD/svg11.dtd">
<svg version="1.1" id="Layer_1" xmlns="http://www.w3.org/2000/svg" xmlns:xlink="http://www.w3.org/1999/xlink" x="0px" y="0px"
	 width="170.079px" height="170.079px" viewBox="0 0 170.079 170.079" enable-background="new 0 0 170.079 170.079"
	 xml:space="preserve">
<path fill="#7CD17C" d="M170.079,45.334v115.01c0,5.399-4.477,9.774-10,9.774H38.096c-5.521,0-10-4.375-10-9.774V9.845
	c0-5.398,4.479-9.774,10-9.774h81.002"/>
<path fill="#41AA27" d="M170.079,45.251h-41.01c-5.506,0-9.971-4.476-9.971-9.998V0.039"/>
<rect y="72.57" fill="#17AF17" width="155.195" height="73.701"/>
<g>
	<path fill="#FFFFFF" d="M32.87,126.006l20.675-29.757v-0.258H34.803v-8.115h31.495v5.668l-20.225,29.37v0.258h20.546v8.115H32.87
		V126.006z"/>
	<path fill="#FFFFFF" d="M82.653,87.876v43.411h-9.854V87.876H82.653z"/>
	<path fill="#FFFFFF" d="M91.152,88.456c3.027-0.516,7.278-0.901,13.268-0.901c6.055,0,10.37,1.159,13.269,3.478
		c2.77,2.189,4.637,5.797,4.637,10.048s-1.417,7.857-3.993,10.305c-3.349,3.156-8.309,4.573-14.105,4.573
		c-1.288,0-2.447-0.064-3.349-0.193v15.522h-9.726V88.456z M100.877,108.165c0.837,0.192,1.867,0.257,3.284,0.257
		c5.218,0,8.438-2.641,8.438-7.084c0-3.994-2.77-6.377-7.664-6.377c-1.997,0-3.35,0.193-4.058,0.387V108.165z"/>
</g>
</svg>
